<svg width="600" height="320" viewBox="0 0 600 320" xmlns="http://www.w3.org/2000/svg">
  <defs>
    <linearGradient id="bg5" x1="0%" y1="0%" x2="100%" y2="100%">
      <stop offset="0%" style="stop-color:#0f172a"/>
      <stop offset="100%" style="stop-color:#172035"/>
    </linearGradient>
    <linearGradient id="pieSlice1" x1="0%" y1="0%" x2="100%" y2="100%">
      <stop offset="0%" style="stop-color:#d97706"/>
      <stop offset="100%" style="stop-color:#0891b2"/>
    </linearGradient>
    <linearGradient id="sparkGrad" x1="0%" y1="0%" x2="100%" y2="0%">
      <stop offset="0%" style="stop-color:#007CF0"/>
      <stop offset="100%" style="stop-color:#d97706"/>
    </linearGradient>
    <filter id="glow5">
      <feGaussianBlur stdDeviation="3" result="coloredBlur"/>
      <feMerge><feMergeNode in="coloredBlur"/><feMergeNode in="SourceGraphic"/></feMerge>
    </filter>
  </defs>

  <!-- Background -->
  <rect width="600" height="320" fill="url(#bg5)" rx="16"/>

  <!-- Report Card -->
  <rect x="40" y="25" width="520" height="270" rx="12" fill="#111827" stroke="#1e3a5f" stroke-width="1"/>

  <!-- Report Header -->
  <rect x="40" y="25" width="520" height="36" rx="12" fill="#d97706" opacity="0.15"/>
  <rect x="40" y="49" width="520" height="12" fill="#111827"/>
  <text x="70" y="50" fill="#d97706" font-size="13" font-family="monospace" font-weight="bold">QUARTERLY INVESTMENT REPORT</text>
  <text x="540" y="50" fill="#64748b" font-size="11" font-family="monospace" text-anchor="end">Q4 2024</text>

  <!-- Donut/Pie chart left -->
  <!-- Slices using path arcs -->
  <!-- Equities: 45% ~ 162deg -->
  <path d="M160,168 L160,118 A50,50 0 0,1 207,143 Z" fill="#d97706" opacity="0.9" filter="url(#glow5)"/>
  <!-- Fixed Income: 30% ~ 108deg -->
  <path d="M160,168 L207,143 A50,50 0 0,1 185,215 Z" fill="#007CF0" opacity="0.9"/>
  <!-- Alternatives: 15% ~ 54deg -->
  <path d="M160,168 L185,215 A50,50 0 0,1 142,218 Z" fill="#8b5cf6" opacity="0.9"/>
  <!-- Cash: 10% ~ 36deg -->
  <path d="M160,168 L142,218 A50,50 0 0,1 113,143 Z" fill="#f59e0b" opacity="0.9"/>
  <!-- Return -->
  <path d="M160,168 L113,143 A50,50 0 0,1 160,118 Z" fill="#d97706" opacity="0.5"/>

  <!-- Inner circle for donut -->
  <circle cx="160" cy="168" r="28" fill="#111827"/>
  <text x="160" y="164" fill="#94a3b8" font-size="9" font-family="monospace" text-anchor="middle">NAV</text>
  <text x="160" y="176" fill="#d97706" font-size="10" font-family="monospace" text-anchor="middle" font-weight="bold">$16.9M</text>

  <!-- Legend -->
  <rect x="230" y="120" width="10" height="10" rx="2" fill="#d97706"/>
  <text x="246" y="130" fill="#94a3b8" font-size="10" font-family="monospace">Equities 45%</text>

  <rect x="230" y="140" width="10" height="10" rx="2" fill="#007CF0"/>
  <text x="246" y="150" fill="#94a3b8" font-size="10" font-family="monospace">Fixed Income 30%</text>

  <rect x="230" y="160" width="10" height="10" rx="2" fill="#8b5cf6"/>
  <text x="246" y="170" fill="#94a3b8" font-size="10" font-family="monospace">Alternatives 15%</text>

  <rect x="230" y="180" width="10" height="10" rx="2" fill="#f59e0b"/>
  <text x="246" y="190" fill="#94a3b8" font-size="10" font-family="monospace">Cash 10%</text>

  <!-- Divider -->
  <line x1="360" y1="62" x2="360" y2="278" stroke="#1e3a5f" stroke-width="1"/>

  <!-- Right: KPI panel -->
  <text x="385" y="85" fill="#64748b" font-size="10" font-family="monospace">PORTFOLIO RETURN</text>
  <text x="385" y="104" fill="#d97706" font-size="20" font-family="monospace" font-weight="bold" filter="url(#glow5)">+12.4%</text>

  <!-- Spark line -->
  <polyline points="385,135 410,128 435,132 460,118 485,122 510,108 535,114" fill="none" stroke="url(#sparkGrad)" stroke-width="2" stroke-linecap="round" stroke-linejoin="round" filter="url(#glow5)"/>
  <circle cx="535" cy="114" r="3" fill="#d97706"/>

  <!-- Stats -->
  <line x1="375" y1="155" x2="545" y2="155" stroke="#1e3a5f" stroke-width="0.5"/>
  <text x="385" y="172" fill="#64748b" font-size="9" font-family="monospace">Benchmark</text>
  <text x="535" y="172" fill="#94a3b8" font-size="10" font-family="monospace" text-anchor="end">+8.7%</text>

  <line x1="375" y1="180" x2="545" y2="180" stroke="#1e3a5f" stroke-width="0.5"/>
  <text x="385" y="197" fill="#64748b" font-size="9" font-family="monospace">Alpha</text>
  <text x="535" y="197" fill="#34d399" font-size="10" font-family="monospace" text-anchor="end">+3.7%</text>

  <line x1="375" y1="205" x2="545" y2="205" stroke="#1e3a5f" stroke-width="0.5"/>
  <text x="385" y="222" fill="#64748b" font-size="9" font-family="monospace">Sharpe Ratio</text>
  <text x="535" y="222" fill="#d97706" font-size="10" font-family="monospace" text-anchor="end">1.84</text>

  <line x1="375" y1="230" x2="545" y2="230" stroke="#1e3a5f" stroke-width="0.5"/>
  <text x="385" y="247" fill="#64748b" font-size="9" font-family="monospace">Max Drawdown</text>
  <text x="535" y="247" fill="#f87171" font-size="10" font-family="monospace" text-anchor="end">-4.2%</text>

  <!-- Bottom label -->
  <line x1="60" y1="280" x2="540" y2="280" stroke="#1e3a5f" stroke-width="1"/>
  <text x="300" y="305" fill="#94a3b8" font-size="12" font-family="monospace" text-anchor="middle" letter-spacing="2">INVESTMENT REPORTING</text>
</svg>
