<svg width="600" height="320" viewBox="0 0 600 320" xmlns="http://www.w3.org/2000/svg">
  <defs>
    <linearGradient id="bg1" x1="0%" y1="0%" x2="100%" y2="100%">
      <stop offset="0%" style="stop-color:#0f172a"/>
      <stop offset="100%" style="stop-color:#1e293b"/>
    </linearGradient>
    <linearGradient id="barGrad1" x1="0%" y1="0%" x2="0%" y2="100%">
      <stop offset="0%" style="stop-color:#0ea5e9"/>
      <stop offset="100%" style="stop-color:#0369a1"/>
    </linearGradient>
    <linearGradient id="barGrad2" x1="0%" y1="0%" x2="0%" y2="100%">
      <stop offset="0%" style="stop-color:#d97706"/>
      <stop offset="100%" style="stop-color:#0891b2"/>
    </linearGradient>
    <linearGradient id="barGrad3" x1="0%" y1="0%" x2="0%" y2="100%">
      <stop offset="0%" style="stop-color:#38bdf8"/>
      <stop offset="100%" style="stop-color:#0284c7"/>
    </linearGradient>
    <linearGradient id="lineGrad" x1="0%" y1="0%" x2="100%" y2="0%">
      <stop offset="0%" style="stop-color:#007CF0"/>
      <stop offset="100%" style="stop-color:#d97706"/>
    </linearGradient>
    <filter id="glow">
      <feGaussianBlur stdDeviation="3" result="coloredBlur"/>
      <feMerge><feMergeNode in="coloredBlur"/><feMergeNode in="SourceGraphic"/></feMerge>
    </filter>
  </defs>

  <!-- Background -->
  <rect width="600" height="320" fill="url(#bg1)" rx="16"/>

  <!-- Grid lines -->
  <line x1="80" y1="60" x2="520" y2="60" stroke="#1e3a5f" stroke-width="1" stroke-dasharray="4,4"/>
  <line x1="80" y1="110" x2="520" y2="110" stroke="#1e3a5f" stroke-width="1" stroke-dasharray="4,4"/>
  <line x1="80" y1="160" x2="520" y2="160" stroke="#1e3a5f" stroke-width="1" stroke-dasharray="4,4"/>
  <line x1="80" y1="210" x2="520" y2="210" stroke="#1e3a5f" stroke-width="1" stroke-dasharray="4,4"/>

  <!-- Y-axis label -->
  <text x="55" y="65" fill="#475569" font-size="10" font-family="monospace" text-anchor="middle">100%</text>
  <text x="55" y="115" fill="#475569" font-size="10" font-family="monospace" text-anchor="middle">75%</text>
  <text x="55" y="165" fill="#475569" font-size="10" font-family="monospace" text-anchor="middle">50%</text>
  <text x="55" y="215" fill="#475569" font-size="10" font-family="monospace" text-anchor="middle">25%</text>

  <!-- Bars -->
  <rect x="110" y="130" width="40" height="80" fill="url(#barGrad1)" rx="4" filter="url(#glow)"/>
  <rect x="190" y="90" width="40" height="120" fill="url(#barGrad2)" rx="4" filter="url(#glow)"/>
  <rect x="270" y="110" width="40" height="100" fill="url(#barGrad1)" rx="4" filter="url(#glow)"/>
  <rect x="350" y="70" width="40" height="140" fill="url(#barGrad3)" rx="4" filter="url(#glow)"/>
  <rect x="430" y="85" width="40" height="125" fill="url(#barGrad2)" rx="4" filter="url(#glow)"/>

  <!-- X labels -->
  <text x="130" y="230" fill="#64748b" font-size="10" font-family="monospace" text-anchor="middle">Q1</text>
  <text x="210" y="230" fill="#64748b" font-size="10" font-family="monospace" text-anchor="middle">Q2</text>
  <text x="290" y="230" fill="#64748b" font-size="10" font-family="monospace" text-anchor="middle">Q3</text>
  <text x="370" y="230" fill="#64748b" font-size="10" font-family="monospace" text-anchor="middle">Q4</text>
  <text x="450" y="230" fill="#64748b" font-size="10" font-family="monospace" text-anchor="middle">YTD</text>

  <!-- Trend line -->
  <polyline points="130,130 210,90 290,110 370,70 450,85" fill="none" stroke="url(#lineGrad)" stroke-width="2.5" stroke-linecap="round" stroke-linejoin="round" filter="url(#glow)"/>
  <!-- Dots on trend line -->
  <circle cx="130" cy="130" r="4" fill="#d97706" filter="url(#glow)"/>
  <circle cx="210" cy="90" r="4" fill="#d97706" filter="url(#glow)"/>
  <circle cx="290" cy="110" r="4" fill="#d97706" filter="url(#glow)"/>
  <circle cx="370" cy="70" r="4" fill="#d97706" filter="url(#glow)"/>
  <circle cx="450" cy="85" r="4" fill="#d97706" filter="url(#glow)"/>

  <!-- Title area -->
  <text x="300" y="278" fill="#94a3b8" font-size="12" font-family="monospace" text-anchor="middle" letter-spacing="2">PERFORMANCE MEASUREMENT</text>
  <line x1="80" y1="255" x2="520" y2="255" stroke="#1e3a5f" stroke-width="1"/>

  <!-- Top badge -->
  <rect x="80" y="18" width="130" height="22" rx="11" fill="#0ea5e9" opacity="0.15"/>
  <text x="145" y="33" fill="#38bdf8" font-size="11" font-family="monospace" text-anchor="middle" letter-spacing="1">ANALYTICS</text>

  <!-- Top right value badge -->
  <rect x="430" y="18" width="90" height="22" rx="11" fill="#0ea5e9" opacity="0.15"/>
  <text x="475" y="33" fill="#38bdf8" font-size="11" font-family="monospace" text-anchor="middle">+18.4%</text>
</svg>
