<svg width="600" height="320" viewBox="0 0 600 320" xmlns="http://www.w3.org/2000/svg">
  <defs>
    <linearGradient id="bg2" x1="0%" y1="0%" x2="100%" y2="100%">
      <stop offset="0%" style="stop-color:#0f172a"/>
      <stop offset="100%" style="stop-color:#162032"/>
    </linearGradient>
    <linearGradient id="nodeGrad" x1="0%" y1="0%" x2="100%" y2="100%">
      <stop offset="0%" style="stop-color:#d97706"/>
      <stop offset="100%" style="stop-color:#d97706"/>
    </linearGradient>
    <linearGradient id="nodeGrad2" x1="0%" y1="0%" x2="100%" y2="100%">
      <stop offset="0%" style="stop-color:#0369a1"/>
      <stop offset="100%" style="stop-color:#0ea5e9"/>
    </linearGradient>
    <filter id="glow2">
      <feGaussianBlur stdDeviation="4" result="coloredBlur"/>
      <feMerge><feMergeNode in="coloredBlur"/><feMergeNode in="SourceGraphic"/></feMerge>
    </filter>
  </defs>

  <!-- Background -->
  <rect width="600" height="320" fill="url(#bg2)" rx="16"/>

  <!-- Connection lines -->
  <line x1="300" y1="80" x2="150" y2="160" stroke="#0ea5e9" stroke-width="1.5" opacity="0.5"/>
  <line x1="300" y1="80" x2="300" y2="160" stroke="#0ea5e9" stroke-width="1.5" opacity="0.5"/>
  <line x1="300" y1="80" x2="450" y2="160" stroke="#0ea5e9" stroke-width="1.5" opacity="0.5"/>
  <line x1="150" y1="160" x2="100" y2="240" stroke="#d97706" stroke-width="1" opacity="0.4"/>
  <line x1="150" y1="160" x2="200" y2="240" stroke="#d97706" stroke-width="1" opacity="0.4"/>
  <line x1="300" y1="160" x2="260" y2="240" stroke="#d97706" stroke-width="1" opacity="0.4"/>
  <line x1="300" y1="160" x2="340" y2="240" stroke="#d97706" stroke-width="1" opacity="0.4"/>
  <line x1="450" y1="160" x2="400" y2="240" stroke="#d97706" stroke-width="1" opacity="0.4"/>
  <line x1="450" y1="160" x2="500" y2="240" stroke="#d97706" stroke-width="1" opacity="0.4"/>

  <!-- Root node -->
  <circle cx="300" cy="80" r="28" fill="url(#nodeGrad)" filter="url(#glow2)"/>
  <text x="300" y="76" fill="white" font-size="10" font-family="monospace" text-anchor="middle" font-weight="bold">MASTER</text>
  <text x="300" y="89" fill="white" font-size="10" font-family="monospace" text-anchor="middle">COMPOSITE</text>

  <!-- Level 2 nodes -->
  <circle cx="150" cy="160" r="22" fill="url(#nodeGrad2)" filter="url(#glow2)"/>
  <text x="150" y="157" fill="white" font-size="9" font-family="monospace" text-anchor="middle">EQUITY</text>
  <text x="150" y="169" fill="white" font-size="9" font-family="monospace" text-anchor="middle">FUND A</text>

  <circle cx="300" cy="160" r="22" fill="url(#nodeGrad2)" filter="url(#glow2)"/>
  <text x="300" y="157" fill="white" font-size="9" font-family="monospace" text-anchor="middle">FIXED</text>
  <text x="300" y="169" fill="white" font-size="9" font-family="monospace" text-anchor="middle">INCOME B</text>

  <circle cx="450" cy="160" r="22" fill="url(#nodeGrad2)" filter="url(#glow2)"/>
  <text x="450" y="157" fill="white" font-size="9" font-family="monospace" text-anchor="middle">GLOBAL</text>
  <text x="450" y="169" fill="white" font-size="9" font-family="monospace" text-anchor="middle">BLEND C</text>

  <!-- Level 3 leaf nodes -->
  <circle cx="100" cy="240" r="14" fill="#1e3a5f" stroke="#0ea5e9" stroke-width="1.5"/>
  <text x="100" y="244" fill="#7dd3fc" font-size="8" font-family="monospace" text-anchor="middle">P1</text>

  <circle cx="200" cy="240" r="14" fill="#1e3a5f" stroke="#0ea5e9" stroke-width="1.5"/>
  <text x="200" y="244" fill="#7dd3fc" font-size="8" font-family="monospace" text-anchor="middle">P2</text>

  <circle cx="260" cy="240" r="14" fill="#1e3a5f" stroke="#0ea5e9" stroke-width="1.5"/>
  <text x="260" y="244" fill="#7dd3fc" font-size="8" font-family="monospace" text-anchor="middle">P3</text>

  <circle cx="340" cy="240" r="14" fill="#1e3a5f" stroke="#0ea5e9" stroke-width="1.5"/>
  <text x="340" y="244" fill="#7dd3fc" font-size="8" font-family="monospace" text-anchor="middle">P4</text>

  <circle cx="400" cy="240" r="14" fill="#1e3a5f" stroke="#0ea5e9" stroke-width="1.5"/>
  <text x="400" y="244" fill="#7dd3fc" font-size="8" font-family="monospace" text-anchor="middle">P5</text>

  <circle cx="500" cy="240" r="14" fill="#1e3a5f" stroke="#0ea5e9" stroke-width="1.5"/>
  <text x="500" y="244" fill="#7dd3fc" font-size="8" font-family="monospace" text-anchor="middle">P6</text>

  <!-- Bottom label -->
  <line x1="80" y1="285" x2="520" y2="285" stroke="#1e3a5f" stroke-width="1"/>
  <text x="300" y="305" fill="#94a3b8" font-size="12" font-family="monospace" text-anchor="middle" letter-spacing="2">COMPOSITE MANAGEMENT</text>
</svg>
